<?xml version="1.0" encoding="utf-8"?>
<!-- Generator: Adobe Illustrator 28.1.0, SVG Export Plug-In . SVG Version: 6.00 Build 0)  -->
<svg version="1.1" id="Layer_1" xmlns="http://www.w3.org/2000/svg" xmlns:xlink="http://www.w3.org/1999/xlink" x="0px" y="0px"
	 viewBox="0 0 1000 1000" style="enable-background:new 0 0 1000 1000;" xml:space="preserve">
<polygon points="786,404.5 768.4,387.2 751.1,404.5 768.4,422.1 "/>
<path d="M770.5,451.5l-21.2,43.4l28.8,24.7c-12.4,4.4-23.6,5.8-32.2,5.5c-14.5-0.5-25-11.1-41.1-35.4c-12.9-19.6-24-28.7-36.7-28.7
	c-14.2,0-27.9,13.7-44.7,37.7c-12.4,17.8-22.2,26.1-33.3,26.1c-10.1,0-18.3-6.5-18.3-30.7V387.2h-2.6l-24.8,30l4.1,89.1
	c2.1,43.6,15.2,61.2,38.7,61.2c15.3,0,26.4-9.1,33.6-19.7l53.9,32.1l25-43.1h1.3c9.6,23.2,23,31,38.2,31c11.4,0,23.5-2.1,35.4-5.2
	c10.3-33.3,13.7-50.1,13.7-66.1c0-14.7-7.2-32-15.5-44.9H770.5z M629.4,505.2c5.3-5.9,10.9-8.4,16.9-8.2c15.1,0,31.4,19,44.8,43.1
	L629.4,505.2z"/>
<polygon points="427.8,592 410.3,574.2 390.4,594 410.3,613.7 427.8,596.1 445.4,613.7 465.3,594 445.4,574.2 "/>
<polygon points="231.3,412 248.9,429.6 268.8,409.9 248.9,390 231.3,407.9 213.5,390 193.9,409.9 213.5,429.8 "/>
<polygon points="525.4,417.7 505.6,397.8 485.9,417.7 505.6,437.6 "/>
<polygon points="446.4,431.6 458.6,416.6 457.8,414.3 318.6,461.3 306.7,476.6 307.2,478.9 "/>
<path d="M508.1,449.4L487,492.8l28.7,24.5c-14.9,4.7-31.8,7.5-47.3,7.5c-24,0-24.8-9.6-24.8-34.3v-11.1h-7.7l-9.2,33.4
	c-35.1,8.9-70.4,12.3-97.2,12.3c-39.5,0-50.1-6.7-50.1-37.4v-65.8h-2.6l-24,24l0.2,9.5l-9.3,4.9c-31,16.5-43.4,28.7-43.4,53.7
	c0,22.7,14.5,33.6,32.3,33.6c6.7,0,12.9-1,18.3-3.4l6.1-18c7.9,29.7,30.9,41.5,68.3,41.5c26.1,0,59.9-3.6,91.2-11.4l7.5-22.7h1.8
	c2.7,22.8,13.1,33.4,37.7,33.8c18.1,0.3,34.1-2.3,49.1-7c10.3-32,13.7-48,13.7-63.5c0-17.3-7.2-34.3-15.5-47.5H508.1z M232.6,505
	c-10.8,0-17-1.8-17-5.9c0-3.9,3.9-6.2,14.7-10.6l23.2-9.6l0.5,24c0,0.2,0,0.4,0,0.5C247.8,504.4,240,505,232.6,505z"/>
<polygon points="768.5,429.6 750.9,411.7 731,431.9 750.9,451.5 768.5,434.1 786,451.5 806.1,431.9 786,411.7 "/>
</svg>
