<?xml version="1.0" encoding="UTF-8" standalone="no" ?>
<!DOCTYPE svg PUBLIC "-//W3C//DTD SVG 1.1//EN" "http://www.w3.org/Graphics/SVG/1.1/DTD/svg11.dtd">
<svg xmlns="http://www.w3.org/2000/svg" xmlns:xlink="http://www.w3.org/1999/xlink" version="1.1" width="1080" height="1080" viewBox="0 0 1080 1080" xml:space="preserve">
<desc>Created with Fabric.js 5.2.4</desc>
<defs>
</defs>
<g transform="matrix(1 0 0 1 540 540)" id="8f4b6ebc-d0c1-42d0-8727-109a65c145d6"  >
<rect style="stroke: none; stroke-width: 1; stroke-dasharray: none; stroke-linecap: butt; stroke-dashoffset: 0; stroke-linejoin: miter; stroke-miterlimit: 4; fill: rgb(255,255,255); fill-rule: nonzero; opacity: 1; visibility: hidden;" vector-effect="non-scaling-stroke"  x="-540" y="-540" rx="0" ry="0" width="1080" height="1080" />
</g>
<g transform="matrix(1 0 0 1 540 540)" id="af6aef54-6697-4828-ab71-514c4b68db3f"  >
</g>
<g transform="matrix(1 0 0 1 540 540)" id="path1"  >
<path style="stroke: rgb(0,0,0); stroke-width: 0; stroke-dasharray: none; stroke-linecap: butt; stroke-dashoffset: 0; stroke-linejoin: miter; stroke-miterlimit: 4; fill: rgb(255,255,255); fill-rule: nonzero; opacity: 1;" vector-effect="non-scaling-stroke"  transform=" translate(-500.1, -500.45)" d="M 412.3 709.1 C 465.1 643.6 486.4 578 495.7 510.2 L 504.3 510.2 C 513.6 578 534.9 643.6 587.7 709.1 L 592.9000000000001 709.1 L 681.8 533.4 C 578.3 475.3 536.4 395.4 506.9 291.8 L 493.3 291.8 C 463.7 395.4 421.9 475.3 318.4 533.4 L 407.29999999999995 709.0999999999999 z" stroke-linecap="round" />
</g>
</svg>