<?xml version="1.0" encoding="UTF-8" standalone="no" ?>
<!DOCTYPE svg PUBLIC "-//W3C//DTD SVG 1.1//EN" "http://www.w3.org/Graphics/SVG/1.1/DTD/svg11.dtd">
<svg xmlns="http://www.w3.org/2000/svg" xmlns:xlink="http://www.w3.org/1999/xlink" version="1.1" width="1000" height="500" viewBox="0 0 1000 500" xml:space="preserve">
<desc>Created with Fabric.js 5.2.4</desc>
<defs>
</defs>
<g transform="matrix(1 0 0 1 500 250)" id="d36d2357-42cd-472f-993c-a7ce155cfc4e"  >
<rect style="stroke: none; stroke-width: 1; stroke-dasharray: none; stroke-linecap: butt; stroke-dashoffset: 0; stroke-linejoin: miter; stroke-miterlimit: 4; fill: rgb(255,255,255); fill-rule: nonzero; opacity: 1; visibility: hidden;" vector-effect="non-scaling-stroke"  x="-500" y="-250" rx="0" ry="0" width="1000" height="500" />
</g>
<g transform="matrix(Infinity NaN NaN Infinity 0 0)" id="73937c73-22a1-4e62-b701-e570edbdd168"  >
</g>
<g transform="matrix(1.58 0 0 1.58 500 250)"  >
<g style="" vector-effect="non-scaling-stroke"   >
		<g transform="matrix(1 0 0 1 268.55 -95.8)"  >
<polygon style="stroke: none; stroke-width: 1; stroke-dasharray: none; stroke-linecap: butt; stroke-dashoffset: 0; stroke-linejoin: miter; stroke-miterlimit: 4; fill: rgb(255,255,255); fill-rule: nonzero; opacity: 1;" vector-effect="non-scaling-stroke"  points="17.45,-0.15 -0.15,-17.45 -17.45,-0.15 -0.15,17.45 " />
</g>
		<g transform="matrix(1 0 0 1 166.35 -16.9)"  >
<path style="stroke: none; stroke-width: 1; stroke-dasharray: none; stroke-linecap: butt; stroke-dashoffset: 0; stroke-linejoin: miter; stroke-miterlimit: 4; fill: rgb(255,255,255); fill-rule: nonzero; opacity: 1;" vector-effect="non-scaling-stroke"  transform=" translate(-666.35, -483.55)" d="M 770.5 451.5 L 749.3 494.9 L 778.0999999999999 519.6 C 765.6999999999999 524 754.4999999999999 525.4 745.8999999999999 525.1 C 731.3999999999999 524.6 720.8999999999999 514 704.7999999999998 489.70000000000005 C 691.8999999999999 470.1 680.7999999999998 461.00000000000006 668.0999999999998 461.00000000000006 C 653.8999999999997 461.00000000000006 640.1999999999998 474.70000000000005 623.3999999999997 498.70000000000005 C 610.9999999999998 516.5 601.1999999999997 524.8000000000001 590.0999999999998 524.8000000000001 C 579.9999999999998 524.8000000000001 571.7999999999998 518.3000000000001 571.7999999999998 494.1000000000001 L 571.7999999999998 387.2 L 569.1999999999998 387.2 L 544.3999999999999 417.2 L 548.4999999999999 506.29999999999995 C 550.5999999999999 549.9 563.6999999999999 567.5 587.1999999999999 567.5 C 602.4999999999999 567.5 613.5999999999999 558.4 620.8 547.8 L 674.6999999999999 579.9 L 699.6999999999999 536.8 L 700.9999999999999 536.8 C 710.5999999999999 560 723.9999999999999 567.8 739.1999999999999 567.8 C 750.5999999999999 567.8 762.6999999999999 565.6999999999999 774.5999999999999 562.5999999999999 C 784.8999999999999 529.3 788.3 512.4999999999999 788.3 496.4999999999999 C 788.3 481.7999999999999 781.0999999999999 464.4999999999999 772.8 451.5999999999999 L 770.5 451.5999999999999 z M 629.4 505.2 C 634.6999999999999 499.3 640.3 496.8 646.3 497 C 661.4 497 677.6999999999999 516 691.0999999999999 540.1 L 629.4 505.2 z" stroke-linecap="round" />
</g>
		<g transform="matrix(1 0 0 1 -72.15 93.5)"  >
<polygon style="stroke: none; stroke-width: 1; stroke-dasharray: none; stroke-linecap: butt; stroke-dashoffset: 0; stroke-linejoin: miter; stroke-miterlimit: 4; fill: rgb(255,255,255); fill-rule: nonzero; opacity: 1;" vector-effect="non-scaling-stroke"  points="-0.05,-1.95 -17.55,-19.75 -37.45,0.05 -17.55,19.75 -0.05,2.15 17.55,19.75 37.45,0.05 17.55,-19.75 " />
</g>
		<g transform="matrix(1 0 0 1 -268.65 -90.55)"  >
<polygon style="stroke: none; stroke-width: 1; stroke-dasharray: none; stroke-linecap: butt; stroke-dashoffset: 0; stroke-linejoin: miter; stroke-miterlimit: 4; fill: rgb(255,255,255); fill-rule: nonzero; opacity: 1;" vector-effect="non-scaling-stroke"  points="-0.05,2.1 17.55,19.7 37.45,0 17.55,-19.9 -0.05,-2 -17.85,-19.9 -37.45,0 -17.85,19.9 " />
</g>
		<g transform="matrix(1 0 0 1 5.65 -82.75)"  >
<polygon style="stroke: none; stroke-width: 1; stroke-dasharray: none; stroke-linecap: butt; stroke-dashoffset: 0; stroke-linejoin: miter; stroke-miterlimit: 4; fill: rgb(255,255,255); fill-rule: nonzero; opacity: 1;" vector-effect="non-scaling-stroke"  points="19.75,0 -0.05,-19.9 -19.75,0 -0.05,19.9 " />
</g>
		<g transform="matrix(1 0 0 1 -117.35 -53.85)"  >
<polygon style="stroke: none; stroke-width: 1; stroke-dasharray: none; stroke-linecap: butt; stroke-dashoffset: 0; stroke-linejoin: miter; stroke-miterlimit: 4; fill: rgb(255,255,255); fill-rule: nonzero; opacity: 1;" vector-effect="non-scaling-stroke"  points="63.75,-15 75.95,-30 75.15,-32.3 -64.05,14.7 -75.95,30 -75.45,32.3 " />
</g>
		<g transform="matrix(1 0 0 1 -136.7 -5.65)"  >
<path style="stroke: none; stroke-width: 1; stroke-dasharray: none; stroke-linecap: butt; stroke-dashoffset: 0; stroke-linejoin: miter; stroke-miterlimit: 4; fill: rgb(255,255,255); fill-rule: nonzero; opacity: 1;" vector-effect="non-scaling-stroke"  transform=" translate(-363.3, -494.8)" d="M 508.1 449.4 L 487 492.8 L 515.7 517.3 C 500.80000000000007 522 483.90000000000003 524.8 468.40000000000003 524.8 C 444.40000000000003 524.8 443.6 515.1999999999999 443.6 490.49999999999994 L 443.6 479.3999999999999 L 435.90000000000003 479.3999999999999 L 426.70000000000005 512.8 C 391.6 521.6999999999999 356.30000000000007 525.0999999999999 329.50000000000006 525.0999999999999 C 290.00000000000006 525.0999999999999 279.40000000000003 518.3999999999999 279.40000000000003 487.69999999999993 L 279.40000000000003 421.8999999999999 L 276.8 421.8999999999999 L 252.8 445.8999999999999 L 253 455.3999999999999 L 243.7 460.2999999999999 C 212.7 476.7999999999999 200.29999999999998 488.9999999999999 200.29999999999998 513.9999999999999 C 200.29999999999998 536.6999999999999 214.79999999999998 547.5999999999999 232.59999999999997 547.5999999999999 C 239.29999999999995 547.5999999999999 245.49999999999997 546.5999999999999 250.89999999999998 544.1999999999999 L 257 526.1999999999999 C 264.9 555.9 287.9 567.6999999999999 325.3 567.6999999999999 C 351.40000000000003 567.6999999999999 385.2 564.0999999999999 416.5 556.3 L 424 533.5999999999999 L 425.8 533.5999999999999 C 428.5 556.3999999999999 438.90000000000003 566.9999999999999 463.5 567.3999999999999 C 481.6 567.6999999999998 497.6 565.0999999999999 512.6 560.3999999999999 C 522.9 528.3999999999999 526.3000000000001 512.3999999999999 526.3000000000001 496.89999999999986 C 526.3000000000001 479.59999999999985 519.1 462.59999999999985 510.80000000000007 449.39999999999986 L 508.1 449.39999999999986 z M 232.6 505 C 221.79999999999998 505 215.6 503.2 215.6 499.1 C 215.6 495.20000000000005 219.5 492.90000000000003 230.29999999999998 488.5 L 253.49999999999997 478.9 L 253.99999999999997 502.9 C 253.99999999999997 503.09999999999997 253.99999999999997 503.29999999999995 253.99999999999997 503.4 C 247.8 504.4 240 505 232.6 505 z" stroke-linecap="round" />
</g>
		<g transform="matrix(1 0 0 1 268.55 -68.85)"  >
<polygon style="stroke: none; stroke-width: 1; stroke-dasharray: none; stroke-linecap: butt; stroke-dashoffset: 0; stroke-linejoin: miter; stroke-miterlimit: 4; fill: rgb(255,255,255); fill-rule: nonzero; opacity: 1;" vector-effect="non-scaling-stroke"  points="-0.05,-2 -17.65,-19.9 -37.55,0.3 -17.65,19.9 -0.05,2.5 17.45,19.9 37.55,0.3 17.45,-19.9 " />
</g>
</g>
</g>
</svg>